All The Episodes of School Days (Ep 1-12) at 480p Video Quality :)

Please seed after you download.

IMPORTANT NOTE!!

Do not think of this anime as a romantic one...cause it certainly isn't, Watch on your own risk...you might get depressed, as this is a tragic anime. You have been Warned!

--------------------------------------------------------------------------------

Cover
------
      
http://img534.imageshack.us/img534/1185/schooldayscursator.jpg

---------------------------------------------------------------------------------

Info
---------------------------------------------------------------------------------

Torrent Statistics
-------------------
        
http://torrent-stats.info/a712/1588bfd04.png

---------------------------------------------------------------------------------

General
--------

Format                                   : MPEG-4
Format profile                           : Base Media
Codec ID                                 : isom
File size                                : 31.2 MiB
Duration                                 : 25mn 29s
Overall bit rate mode                    : Variable
Overall bit rate                         : 171 Kbps

Video
---------------------------------------

ID                                       : 1
Format                                   : AVC
Format/Info                              : Advanced Video Codec
Format profile                           : High@L3.0
Format settings, CABAC                   : Yes
Format settings, ReFrames                : 8 frames
Codec ID                                 : avc1
Codec ID/Info                            : Advanced Video Coding
Duration                                 : 25mn 29s
Bit rate                                 : 124 Kbps
Maximum bit rate                         : 1 291 Kbps
Width                                    : 640 pixels
Height                                   : 360 pixels
Display aspect ratio                     : 16:9
Frame rate mode                          : Constant
Frame rate                               : 23.976 fps
Color space                              : YUV
Chroma subsampling                       : 4:2:0
Bit depth                                : 8 bits
Scan type                                : Progressive
Bits/(Pixel*Frame)                       : 0.022
Stream size                              : 22.5 MiB (72%)
Title                                    : Imported with GPAC 0.4.6-DEV (build 1)
Writing library                          : x264 core 92 r1510 33d382a

Audio
----------------------------------

ID                                       : 2
Format                                   : AAC
Format/Info                              : Advanced Audio Codec
Format profile                           : LC
Codec ID                                 : 40
Duration                                 : 25mn 29s
Bit rate mode                            : Variable
Bit rate                                 : 44.0 Kbps
Maximum bit rate                         : 83.8 Kbps
Channel(s)                               : 2 channels
Channel positions                        : Front: L R
Sampling rate                            : 48.0 KHz
Compression mode                         : Lossy
Stream size                              : 8.03 MiB (26%)

----------------------------------------------------------------------------------

Screenshots
----------------------------------------------------------------------------------
                       
http://img18.imageshack.us/img18/6302/vlcsnap2013010621h37m46.png
                       
http://img850.imageshack.us/img850/3199/vlcsnap2013010621h37m53.png
                       
http://img42.imageshack.us/img42/6594/vlcsnap2013010621h38m00.png
                       
http://img705.imageshack.us/img705/6748/vlcsnap2013010621h38m04.png
                       
http://img600.imageshack.us/img600/9382/vlcsnap2013010621h38m09.png
 

----------------------------------------------------------------------------------

Story
----------------------------------------------------------------------------------

Makoto Ito rides the train to and from school every day. However, at the beginning of his second term, he falls in love with a beautiful girl that also rides the train. Unfortunately, she barely knows of his existence. Her name is Kotonoha Katsura, and though they attend the same school, they are not in the same class. In an attempt to catch her eye, Makoto enlists the aid of a close female friend of his: Sekai Saionji. She helps him, despite the fact that sheΓÇöunbeknownst to MakotoΓÇöis in love with him. Thus the three are bound in a love triangle of life-changing proportions.

----------------------------------------------------------------------------------

Thank you for downloading. 

Enjoy Watching :)		
--------------------------------------------------------------------------------

and Email
------------------

(Add .com)

Cursator@ymail.com 

Thank you :)		
							